<?xml version="1.0" encoding="utf-8"?>
<!-- Generator: Adobe Illustrator 21.1.0, SVG Export Plug-In . SVG Version: 6.00 Build 0)  -->
<svg version="1.1" xmlns="http://www.w3.org/2000/svg" xmlns:xlink="http://www.w3.org/1999/xlink" x="0px" y="0px"
	 viewBox="0 0 647 165" style="enable-background:new 0 0 647 165;" xml:space="preserve">
<style type="text/css">
	.st0{fill:none;}
	.st1{fill:#DD0031;}
</style>
<g id="Logo">
	<rect x="-70.8" y="-70.6" class="st0" width="789.2" height="306.3"/>
	<g>
		<g>
			<g>
				<path class="st1" d="M222.9,106.4h26.5v14.4h-41.6V44.2h15.1V106.4z"/>
				<path class="st1" d="M257.3,50.9c0-4.7,3.9-8.8,8.6-8.8c4.8,0,8.8,4,8.8,8.8c0,4.7-3.9,8.6-8.8,8.6
					C261.3,59.5,257.3,55.6,257.3,50.9z M259,120.8V66.1h14.1v54.7H259z"/>
				<path class="st1" d="M332,70.6c3.9,4,5.9,9.5,5.9,16.6v33.6h-14.1V89c0-7.3-4.3-11.3-10.8-11.3c-7.3,0-12,4.5-12,13.6v29.5
					h-14.1V66.1h14.1v6.1c3.4-5.1,8.9-7.7,16.3-7.7C323.2,64.6,328.2,66.5,332,70.6z"/>
				<path class="st1" d="M361.7,98.8c1.9,7.3,7,10.7,15.4,10.7c5.4,0,9.5-1.9,12.3-5.5l11.4,6.6c-5.4,7.8-13.3,11.7-23.8,11.7
					c-9.1,0-16.3-2.7-21.8-8.2c-5.5-5.5-8.2-12.4-8.2-20.7c0-8.2,2.7-15.1,8.1-20.6c5.4-5.6,12.4-8.3,20.8-8.3
					c8,0,14.7,2.7,19.8,8.3c5.3,5.6,7.9,12.4,7.9,20.6c0,1.9-0.2,3.7-0.5,5.4H361.7z M389.4,88.8c-1.6-7.9-7.1-11.5-13.6-11.5
					c-7.5,0-12.7,4-14.3,11.5H389.4z"/>
				<path class="st1" d="M455.4,44.2h14.1v76.6h-14.1v-6.5c-4.2,5.4-10.1,8-17.7,8c-7.3,0-13.7-2.7-18.9-8.3
					c-5.1-5.6-7.8-12.5-7.8-20.6c0-8.1,2.6-14.9,7.8-20.5c5.3-5.6,11.6-8.4,18.9-8.4c7.7,0,13.6,2.6,17.7,8V44.2z M440.3,108.9
					c4.4,0,8-1.4,10.8-4.3c2.8-3,4.3-6.7,4.3-11.2c0-4.5-1.4-8.2-4.3-11c-2.8-3-6.5-4.4-10.8-4.4c-4.4,0-8,1.4-10.9,4.4
					c-2.8,2.8-4.3,6.6-4.3,11c0,4.5,1.4,8.2,4.3,11.2C432.3,107.5,436,108.9,440.3,108.9z"/>
				<path class="st1" d="M523,66.1h14.1v54.7H523v-6.5c-4.3,5.4-10.2,8-17.8,8c-7.3,0-13.6-2.7-18.8-8.3c-5.1-5.6-7.8-12.5-7.8-20.6
					c0-8.1,2.6-14.9,7.8-20.5c5.2-5.6,11.5-8.4,18.8-8.4c7.7,0,13.6,2.6,17.8,8V66.1z M507.8,108.9c4.4,0,8-1.4,10.8-4.3
					c3-3,4.4-6.7,4.4-11.2c0-4.5-1.4-8.2-4.4-11c-2.8-3-6.5-4.4-10.8-4.4c-4.4,0-8,1.4-10.8,4.4c-2.8,2.8-4.3,6.6-4.3,11
					c0,4.5,1.4,8.2,4.3,11.2C499.9,107.5,503.5,108.9,507.8,108.9z"/>
				<path class="st1" d="M576.7,79.7h-12.4v22.8c0,5.9,4.3,6,12.4,5.6v12.8c-19.4,2.2-26.5-3.4-26.5-18.4V55.1l14.1-4.3v15.3h12.4
					V79.7z"/>
				<path class="st1" d="M627.8,66.1h14.1v54.7h-14.1v-6.5c-4.3,5.4-10.2,8-17.8,8c-7.3,0-13.6-2.7-18.8-8.3
					c-5.1-5.6-7.8-12.5-7.8-20.6c0-8.1,2.6-14.9,7.8-20.5c5.2-5.6,11.5-8.4,18.8-8.4c7.7,0,13.6,2.6,17.8,8V66.1z M612.6,108.9
					c4.4,0,8-1.4,10.8-4.3c3-3,4.4-6.7,4.4-11.2c0-4.5-1.4-8.2-4.4-11c-2.8-3-6.5-4.4-10.8-4.4c-4.4,0-8,1.4-10.8,4.4
					c-2.8,2.8-4.3,6.6-4.3,11c0,4.5,1.4,8.2,4.3,11.2C604.6,107.5,608.2,108.9,612.6,108.9z"/>
			</g>
		</g>
	</g>
	<path class="st1" d="M143.1,10.1l-6.5,1.2c8,8.4,17.8,23.7,17.8,42.9c0,18-6.6,34.4-18.3,48.2c-13.2,15.5-31.3,24.7-55.2,29.2
		c-15.2,2.9-38.1,7.2-46.7,8.8c-3.5,0.7-6.9,1.2-8.5-0.1c-0.9-0.7-1.3-2-1.3-4.1V62.9c0-11.4,2.5-18.9,8.3-24.4
		c10-9.7,50.5-22.7,68.7-10.4c6.8,4.6,10.8,12.2,11.7,22.4c1,10.7-1.8,21-8.4,29.2c-7,8.7-16.4,13.6-26.6,15.5
		c-8.4,1.6-18.4,3.5-18.4,3.5V43.3c0,0-1.1,0.3-1.7,0.5c-6,2-10.3,5.1-13.2,9.4c-2.9,4.3-4.3,9.6-4.3,16.4v42.9
		c0,2.9,0.7,4.9,2.2,6.1c1.5,1.2,3.8,1.5,6.8,0.9c1.7-0.3,22-4.1,30.7-5.8c16.7-3.1,31.4-12,40.5-24.3c9.5-12.8,13.2-29,10.6-44.3
		c-2.3-13.9-8.8-24.3-19.2-31.1c-7.1-4.6-15.8-7.3-26-7.9c-9.8-0.7-20.7,0.5-32.4,3.6c-13.6,3.6-25,9.1-33.1,16
		c-9.9,8.5-15,19.1-15,31.4v82.7c0,12.2,6.3,19.2,17.3,19.2c2,0,4.2-0.2,6.5-0.7c10.2-1.9,45.2-8.5,52.8-10
		c35.2-6.6,50.4-19.4,63.5-35.2c12.9-15.6,20.3-34.8,20.3-52.5C166.1,38.2,156.8,21.3,143.1,10.1z"/>
</g>
<g id="Interne">
	<rect x="-98" y="-157" class="st0" width="841.9" height="595.3"/>
</g>
</svg>
